<?xml version="1.0" encoding="UTF-8"?>
<svg id="Ebene_2" data-name="Ebene 2" xmlns="http://www.w3.org/2000/svg" viewBox="0 0 164.2 164.2">
  <defs>
    <style>
      .cls-1 {
        fill: none;
        stroke: #f7f5f2;
        stroke-linecap: round;
        stroke-miterlimit: 10;
        stroke-width: 1.5px;
      }

      .cls-2 {
        fill: #f7f5f2;
      }
    </style>
  </defs>
  <path class="cls-2" d="M74.73,132c-4.31.53-9.13,2.06-11.42,6.04-2.19,3.89-2.89,8.69-2.5,13.1,0,0-1.41-.28-1.41-.28,3.56-7.01,9.37-12.57,15.93-16.77,2.19-1.4,4.5-2.59,6.83-3.68.37-.18.82-.01,1,.36.18.37.01.82-.36,1-9.09,4.18-17.45,10.75-22.07,19.78,0,0-1.3,2.51-1.3,2.51-.42-5.66.01-11.58,2.9-16.6,2.47-4.23,7.62-6.01,12.18-6.94,1-.18,1.24,1.36.22,1.48h0Z"/>
  <path class="cls-2" d="M109.71,47.73c-.15-.14-.47-.07-.5.05,0,0-.02-.62-.02-.62-.56-6.17-3.33-13.14-9.03-16.12-5.8-2.57-14.49-.13-19.52,3.29,0,0-.42-1.33-.42-1.33,8.94.79,17.63,1.94,24.26,8.65,1.35,1.22,2.6,2.57,3.84,3.89.69.64.99,1.25,1.4,2.19h0ZM110.13,49.17c-1.15-.79-2.6-2.43-3.51-3.58-7.46-9.16-15.17-10.84-26.51-11.1,0,0-2.06-.07-2.06-.07,4.83-3.97,11.1-5.79,17.26-5.88,5.78-.2,10.67,4.3,12.86,9.29,1.45,3.12,2.43,6.5,2.52,9.96.04.41-.28,1.12-.57,1.38h0Z"/>
  <path class="cls-2" d="M98.07,18.32c4.27-.43,8.61-.19,12.82.75l-.75,1.2c-3.4-3.83-8.79-6.38-13.96-6.56-6.82.4-12.59,5.98-15.46,11.88,0,0-1.04-.97-1.04-.97,5.69-3.12,11.85-5.74,18.4-6.31h0ZM98.18,19.6c-7.19.58-13.71,4-19.9,7.5,2.93-6.63,8.1-12.73,15.38-14.55,3.23-.77,6.64.03,9.64,1.25,2.97,1.25,5.82,2.95,7.99,5.52l1.45,1.71c-4.73-1.22-9.66-1.89-14.56-1.43h0Z"/>
  <path class="cls-2" d="M96.64,96.1c-28.49,6.26-50.29-20.6-38.39-47.2,3.47-7.71,9.44-14.23,16.77-18.41,0,0,.53,1.38.53,1.38-6.24,1.33-12.24,3.81-17.62,7.26-28.74,17.98-34.5,60.63-4.59,80.43,17.83,12.02,41.49,7.8,55.09-8.55,0,0,.39-.45.39-.45l.1-.11c.33.28-.68-.71.76.62l-.05.06-.22.22c-8.3,8.13-20.63,11.32-31.89,8.64-9.85-1.87-17.66-9.07-22.61-17.5-5.3-8.25-7.79-18.11-7.89-27.86-.07-14.1,3.68-25.36,14.02-35.2.11-.12.3-.12.42,0,.11.11.11.3,0,.41-2.27,2.3-4.43,4.7-6.27,7.34-3.31,4.58-5.41,9.9-6.37,15.45-2.59,13.36-.65,27.9,6.77,39.45,4.89,8.24,12.47,15.25,22.12,17.06,9.39,2.15,19.55.35,27.34-5.42,1.37-.99,2.69-2.06,3.87-3.26l.05-.05c1.5,1.26.39.38.71.68l-.1.12-.4.47c-13.89,16.8-38.16,21.16-56.48,8.89-11.04-7.15-18.74-19.22-20.22-32.32-3.49-26.62,16.86-52.55,42.76-57.81,0,0,4.61-.99,4.61-.99l-4.08,2.38c-22.69,12.62-27.33,46.31-3.07,59.8,7.13,3.87,15.7,4.79,23.62,3.04.95-.2,1.3,1.24.32,1.47h0Z"/>
  <path class="cls-2" d="M83.88,110.99c-.78-.7-1.53-1.44-2.23-2.24-.6-.71-1.26-1.52-2.03-2.04-2.34-1.67-5.7-1.66-8.53-2.4-3.04-.84-5.89-1.93-8.77-3.21,0,0,1.01-.97,1.01-.97,2.11,4.73,5.36,9.58,9.91,12.23,4.67,2.48,10.57,2.74,15.49.85,0,0-.16.07-.16.07.87-.69,1.81.72.82,1.25-5.48,1.34-11.52,1.37-16.63-1.28-4.91-2.85-8.27-7.55-10.81-12.53,0,0-.85-1.84-.85-1.84,3.3,1.57,6.84,3,10.37,3.98,3.48.86,7.6.79,10.3,3.73.98,1.14,1.99,2.3,3.13,3.29.73.65-.26,1.77-1,1.12h0Z"/>
  <path class="cls-1" d="M108.56,105.88c4.53,2.23,9.43,1.92,14.62-1.72,4.55-3.19,8.64-8.08,9.26-13.52"/>
  <path class="cls-2" d="M131.52,86.78c.07-1.18-2.54-.53-3.3-.31-1.65.5-3.54.91-5.39.56-3.5-.74-6.13-3.22-9.75-3.06-7.16-.11-11.58,7.18-10.34,13.82.06.41-.23.79-.64.85-.42.06-.81-.24-.85-.66-.19-1.79-.16-3.62.22-5.41,1.07-5.39,5.97-10.01,11.61-9.79,3.59-.21,6.68,2.43,9.94,3.12,1.59.27,3.21-.06,4.84-.63,1.52-.46,4.15-1.21,5.03.78.26.64.18,1.95-.8,1.83-.51-.07-.81-.65-.57-1.11h0Z"/>
</svg>