<?xml version="1.0" encoding="UTF-8"?>
<svg xmlns="http://www.w3.org/2000/svg" viewBox="0 0 128.55 171.4">
  <defs>
    <style>
      .cls-1 {
        fill: none;
        stroke: #1c1c1c;
        stroke-linecap: round;
        stroke-miterlimit: 10;
      }
    </style>
  </defs>
  <g id="Ebene_2" data-name="Ebene 2">
    <path class="cls-1" d="M46.65,132.35c-2.97.44-5.91,1.44-8.3,3.32-3.17,2.5-4.68,9.12-4.28,13.91,2.06-3.97,4.97-7.64,8.71-10.7s6.49-4.73,10.65-6.68"/>
    <path class="cls-1" d="M77.14,60.82c.3-2.59-1.52-12.19-8-15.53-5.57-2.87-15.19.8-17.7,2.83,13.25.85,17.35,2.59,25.7,12.7Z"/>
    <path class="cls-1" d="M66.96,37.08c3.76-.35,7.42-.07,10.87.72-2.83-3.49-9.31-6.33-13.44-5.84-5.91.71-11.05,6.21-13.06,10.58,5-2.73,9.79-4.92,15.63-5.46Z"/>
    <path class="cls-1" d="M65.53,102.22c-10.77,2.37-22.02-.86-29.02-9.43-10.24-12.52-7.5-31.7,6.12-42.83,1.5-1.23,3.07-2.29,4.69-3.22-6.97,1.49-13.8,4.65-19.82,9.57-18.81,15.38-22.6,41.86-8.46,59.16,7.23,8.84,17.73,14.12,28.8,14.12s21.57-5.28,28.8-14.11c.05-.06-8.05,8.81-20.94,8.4-14.34-.46-21.35-7.94-26.95-17.65s-7.48-23.26-3.84-36c3.08-10.77,10.83-16.97,14.01-19.28"/>
    <path class="cls-1" d="M55.09,116.09c-.8-.71-1.61-1.53-2.33-2.42-2.55-3.15-6.14-2.57-9.85-3.73s-6.61-2.49-6.61-2.49c1.17,2.75,4.11,7.21,7.34,9.67,4.32,3.28,10.59,3.44,15.38,1.99l.05-.03"/>
  </g>
  <g id="Ebene_4" data-name="Ebene 4">
    <path class="cls-1" d="M75.1,111.29c3.91,1.92,8.15,1.66,12.63-1.48,3.93-2.76,7.46-6.98,8-11.68"/>
    <path class="cls-1" d="M95.57,94.94s.5-2.25-3.92-.84-5.87-.28-9.21-1.59-6.73-.38-8.31.68c-4.38,2.96-5.17,7.35-4.69,11.21"/>
  </g>
</svg>