<?xml version="1.0" encoding="UTF-8"?>
<svg id="Ebene_1" data-name="Ebene 1" xmlns="http://www.w3.org/2000/svg" viewBox="0 0 155.79 74.89">
  <defs>
    <style>
      .cls-1, .cls-2 {
        fill: #fff;
      }

      .cls-2, .cls-3 {
        stroke: #fff;
        stroke-miterlimit: 10;
        stroke-width: .25px;
      }

      .cls-3 {
        fill: none;
      }
    </style>
  </defs>
  <path class="cls-2" d="M27.13,25.02c-2.11,3.01-5.8,5.05-10.54,5.05-7.64,0-12.92-5.31-12.92-13.07S8.94,3.93,16.58,3.93c4.41,0,7.98,1.7,10.28,4.67.11.15.19.34.19.53,0,.41-.3.72-.68.72-.26,0-.45-.11-.6-.3-2.03-2.71-5.23-4.29-9.15-4.29-6.81,0-11.48,4.78-11.48,11.75s4.67,11.75,11.48,11.75c3.99,0,7.27-1.58,9.41-4.67.19-.23.34-.3.6-.3.38,0,.68.3.68.72,0,.23-.08.38-.19.53Z"/>
  <path class="cls-1" d="M45.85,13.36v13.33c0,.42-.19.67-.54.67-.38,0-.61-.26-.61-.67v-2.91h-.06c-1.22,2.4-3.65,3.77-6.84,3.77-4.64,0-7.83-3.23-7.83-7.96s3.2-7.99,7.83-7.99c3.2,0,5.63,1.37,6.84,3.77h.06v-2.01c0-.42.22-.67.61-.67.35,0,.54.26.54.67ZM44.7,19.6c0-4.09-2.75-6.91-6.78-6.91s-6.78,2.78-6.78,6.91,2.78,6.87,6.78,6.87,6.78-2.78,6.78-6.87Z"/>
  <path class="cls-1" d="M58.46,12.28c0,.38-.26.54-.61.54-3.96,0-6.23,2.69-6.23,7.67v6.2c0,.42-.19.67-.58.67s-.58-.26-.58-.67v-13.33c0-.42.2-.67.58-.67s.58.26.58.67v2.14s.06,0,.06,0c1.09-2.49,3.17-3.81,6.17-3.81.35,0,.61.19.61.58Z"/>
  <path class="cls-1" d="M60.95,4.81c0-.51.31-.87.82-.88s.84.34.84.85-.28,2.92-.79,2.93-.86-2.4-.87-2.91ZM62.35,13.36v13.33c.01.42-.18.67-.56.67s-.58-.26-.58-.67v-13.33c-.01-.42.18-.67.56-.67s.58.26.58.67Z"/>
  <path class="cls-1" d="M81.23,18.73v7.96c0,.42-.19.67-.58.67-.35,0-.58-.26-.58-.67v-7.9c0-4-1.95-6.11-5.76-6.11s-6.2,2.65-6.2,6.81v7.19c0,.42-.19.67-.58.67s-.58-.26-.58-.67l-.08-13.33c0-.42.19-.67.58-.67s.58.26.58.67l.08,1.85h.06c1.15-2.27,3.36-3.61,6.33-3.61,4.38,0,6.71,2.49,6.71,7.13Z"/>
  <path class="cls-1" d="M100.49,13.36v13.33c0,.42-.19.67-.54.67-.38,0-.61-.26-.61-.67v-2.91h-.06c-1.22,2.4-3.64,3.77-6.84,3.77-4.64,0-7.83-3.23-7.83-7.96s3.2-7.99,7.83-7.99c3.2,0,5.63,1.37,6.84,3.77h.06v-2.01c0-.42.22-.67.61-.67.35,0,.54.26.54.67ZM99.34,19.6c0-4.09-2.75-6.91-6.78-6.91s-6.78,2.78-6.78,6.91,2.78,6.87,6.78,6.87,6.78-2.78,6.78-6.87Z"/>
  <path class="cls-2" d="M46.18,38.78v24.79c0,.42-.22.67-.61.67-.42,0-.61-.26-.61-.67l.11-12.49h-16.43l-.11,12.49c0,.42-.22.67-.61.67s-.61-.26-.61-.67v-24.79c0-.42.22-.67.61-.67s.61.26.61.67l.11,11.19h16.43l-.11-11.19c0-.42.19-.67.61-.67.38,0,.61.26.61.67Z"/>
  <path class="cls-1" d="M58.14,45.78c4.7,0,7.93,3.23,7.93,7.99s-3.23,7.96-7.93,7.96-7.96-3.23-7.96-7.96,3.26-7.99,7.96-7.99ZM58.14,60.65c4,0,6.75-2.78,6.75-6.87s-2.75-6.91-6.75-6.91-6.78,2.78-6.78,6.91,2.78,6.87,6.78,6.87Z"/>
  <path class="cls-1" d="M71.03,39.45v24.12c.01.42-.18.67-.56.67s-.58-.26-.58-.67v-24.12c-.01-.42.18-.67.57-.67s.58.26.58.67Z"/>
  <path class="cls-1" d="M76.79,39.45l.03,24.12c0,.42-.19.67-.58.67s-.58-.26-.58-.67l-.03-24.12c0-.42.19-.67.58-.67s.58.26.58.67Z"/>
  <path class="cls-1" d="M82.54,47.54v13.33c.01.42-.18.67-.56.67s-.58-.26-.58-.67v-13.33c-.01-.42.18-.67.56-.67s.58.26.58.67Z"/>
  <path class="cls-1" d="M101.42,52.91v7.96c0,.42-.19.67-.58.67-.35,0-.58-.26-.58-.67v-7.9c0-4-1.95-6.11-5.76-6.11s-6.2,2.65-6.2,6.81v7.19c0,.42-.19.67-.58.67s-.58-.26-.58-.67l-.04-13.33c0-.42.19-.67.58-.67s.58.26.58.67l.04,1.85h.06c1.15-2.27,3.36-3.61,6.33-3.61,4.38,0,6.71,2.49,6.71,7.13Z"/>
  <path class="cls-1" d="M120.67,47.54v17.95c0,4.57-2.97,7.35-7.8,7.35-3.01,0-5.6-.99-6.78-2.59-.1-.13-.13-.26-.13-.38,0-.32.22-.58.58-.58.22,0,.35.1.45.22,1.12,1.41,3.2,2.24,5.88,2.24,4.16,0,6.65-2.37,6.65-6.27v-7.56h-.06c-1.22,2.3-3.61,3.74-6.84,3.74-4.64,0-7.84-3.23-7.84-7.96s3.2-7.93,7.84-7.93c3.23,0,5.63,1.44,6.84,3.71h.06v-1.95c0-.42.22-.67.58-.67s.58.26.58.67ZM119.52,53.71c0-4.06-2.75-6.84-6.81-6.84s-6.75,2.78-6.75,6.84,2.75,6.87,6.75,6.87,6.81-2.78,6.81-6.87Z"/>
  <path class="cls-1" d="M140.26,53.45c0,.38-.29.67-.67.67h-13.94c.16,3.9,2.91,6.6,6.97,6.52,3.45-.07,5.34-1.5,6.52-3,.16-.19.32-.26.51-.26.32,0,.58.26.58.54,0,.13-.03.26-.16.42-1.37,1.76-3.45,3.39-7.45,3.39-4.89,0-8.15-3.23-8.15-7.96s3.26-7.99,7.96-7.99,7.83,3.17,7.83,7.67ZM125.68,53.04h13.46c-.32-3.71-2.97-6.17-6.71-6.17s-6.43,2.46-6.75,6.17Z"/>
  <path class="cls-1" d="M151.71,46.45c0,.38-.26.54-.61.54-3.97,0-6.24,2.69-6.24,7.67v6.2c0,.42-.19.67-.58.67s-.58-.26-.58-.67v-13.33c0-.42.19-.67.57-.67s.58.26.58.67v2.14h.07c1.09-2.49,3.17-3.81,6.17-3.81.35,0,.61.19.61.58Z"/>
  <path class="cls-1" d="M81.14,39.65c0-.51.31-.87.82-.88s.84.34.84.85-.28,2.92-.79,2.93-.86-2.4-.87-2.91Z"/>
  <path class="cls-3" d="M65.98,5.94c.25.21.26.68-.02,1.02s-1.84,1.72-2.09,1.51.85-2,1.14-2.34.73-.41.98-.19"/>
</svg>