{
	"asset":{
		"generator":"Khronos glTF Blender I/O v5.0.21",
		"version":"2.0"
	},
	"extensionsUsed":[
		"KHR_materials_clearcoat",
		"KHR_lights_punctual"
	],
	"extensionsRequired":[
		"KHR_lights_punctual"
	],
	"extensions":{
		"KHR_lights_punctual":{
			"lights":[
				{
					"color":[
						0.0058898054994642735,
						1,
						0.9627336263656616
					],
					"intensity":0.31846531093290387,
					"type":"point",
					"name":"Area"
				},
				{
					"color":[
						0.0058898054994642735,
						1,
						0.9627336263656616
					],
					"intensity":0.31846531093290387,
					"type":"point",
					"name":"Area.003"
				}
			]
		}
	},
	"scene":0,
	"scenes":[
		{
			"name":"Scene",
			"nodes":[
				12,
				14
			]
		}
	],
	"nodes":[
		{
			"mesh":0,
			"name":"01hairband",
			"rotation":[
				-0.7697113156318665,
				0,
				0,
				0.6383920907974243
			],
			"scale":[
				-29.005048751831055,
				-29.005048751831055,
				-29.005048751831055
			],
			"translation":[
				0,
				-7.958432674407959,
				0.7527472972869873
			]
		},
		{
			"mesh":1,
			"name":"01scalp",
			"translation":[
				0,
				0,
				0.008297963999211788
			]
		},
		{
			"extensions":{
				"KHR_lights_punctual":{
					"light":0
				}
			},
			"name":"Area.003",
			"rotation":[
				0.024830050766468048,
				-0.702793300151825,
				0.70963454246521,
				0.04340352490544319
			],
			"scale":[
				0.40265771746635437,
				0.40265774726867676,
				0.40265771746635437
			],
			"translation":[
				-0.7413621544837952,
				1.696984052658081,
				-34.561058044433594
			]
		},
		{
			"extensions":{
				"KHR_lights_punctual":{
					"light":1
				}
			},
			"name":"Area.004",
			"rotation":[
				0.024830050766468048,
				-0.702793300151825,
				0.70963454246521,
				0.04340352490544319
			],
			"scale":[
				0.40265771746635437,
				0.40265774726867676,
				0.40265771746635437
			],
			"translation":[
				0.9571066498756409,
				1.714072346687317,
				-34.53992462158203
			]
		},
		{
			"children":[
				2,
				3
			],
			"mesh":2,
			"name":"03eyeballs",
			"scale":[
				-1.2265018224716187,
				-1.2265018224716187,
				-1.226501703262329
			]
		},
		{
			"children":[
				0,
				1,
				4
			],
			"mesh":3,
			"name":"02head",
			"rotation":[
				0.7071068286895752,
				0,
				0,
				0.7071068286895752
			],
			"scale":[
				0.16582325100898743,
				0.16582325100898743,
				0.16582323610782623
			]
		},
		{
			"mesh":4,
			"name":"02scarf",
			"scale":[
				-4.80971097946167,
				-4.80971097946167,
				-4.80971097946167
			]
		},
		{
			"mesh":5,
			"name":"03belt"
		},
		{
			"mesh":6,
			"name":"04.1shoelace",
			"scale":[
				-12.84218978881836,
				-12.842188835144043,
				-12.84218978881836
			]
		},
		{
			"children":[
				8
			],
			"mesh":7,
			"name":"04shoes",
			"scale":[
				0.37452420592308044,
				0.37452423572540283,
				0.37452420592308044
			]
		},
		{
			"mesh":8,
			"name":"05shirt",
			"scale":[
				1.3465285301208496,
				1.3465285301208496,
				1.3465285301208496
			]
		},
		{
			"mesh":9,
			"name":"06pants",
			"scale":[
				-1.8100535869598389,
				-1.8100535869598389,
				-1.8100535869598389
			]
		},
		{
			"children":[
				5,
				6,
				7,
				9,
				10,
				11
			],
			"mesh":10,
			"name":"04body",
			"rotation":[
				0,
				0.012566042132675648,
				0,
				0.9999211430549622
			],
			"scale":[
				-0.20791269838809967,
				-0.20791268348693848,
				-0.20791269838809967
			]
		},
		{
			"mesh":11,
			"name":"02head.001",
			"rotation":[
				0.7071068286895752,
				0,
				0,
				0.7071068286895752
			],
			"scale":[
				0.16582325100898743,
				0.16582325100898743,
				0.16582323610782623
			]
		},
		{
			"children":[
				13
			],
			"mesh":12,
			"name":"bake",
			"rotation":[
				0,
				0.012566042132675648,
				0,
				0.9999211430549622
			],
			"scale":[
				-0.20791269838809967,
				-0.20791268348693848,
				-0.20791269838809967
			]
		}
	],
	"materials":[
		{
			"doubleSided":true,
			"name":"Material",
			"pbrMetallicRoughness":{
				"baseColorFactor":[
					0.032027967274188995,
					0.018317680805921555,
					0.00644441694021225,
					1
				],
				"metallicFactor":0
			}
		},
		{
			"doubleSided":true,
			"name":"hair1",
			"pbrMetallicRoughness":{
				"baseColorFactor":[
					0.0008928559254854918,
					0.0008928559254854918,
					0.0008928559254854918,
					1
				],
				"metallicFactor":0
			}
		},
		{
			"doubleSided":true,
			"name":"hair2",
			"pbrMetallicRoughness":{
				"baseColorFactor":[
					0.700707733631134,
					0.7021913528442383,
					0.6116087436676025,
					1
				],
				"metallicFactor":0
			}
		},
		{
			"doubleSided":true,
			"name":"eye",
			"pbrMetallicRoughness":{
				"baseColorFactor":[
					0.800000011920929,
					0.800000011920929,
					0.800000011920929,
					1
				],
				"metallicFactor":0,
				"roughnessFactor":0
			}
		},
		{
			"doubleSided":true,
			"name":"eyecolour",
			"pbrMetallicRoughness":{
				"baseColorFactor":[
					0.01698240078985691,
					1,
					0.7130982875823975,
					1
				],
				"metallicFactor":0,
				"roughnessFactor":0
			}
		},
		{
			"doubleSided":true,
			"name":"pupille",
			"pbrMetallicRoughness":{
				"baseColorFactor":[
					0,
					0,
					0,
					1
				],
				"metallicFactor":0,
				"roughnessFactor":0
			}
		},
		{
			"doubleSided":true,
			"name":"Vitiligo 1",
			"pbrMetallicRoughness":{
				"metallicFactor":0,
				"roughnessFactor":0.5995850563049316
			}
		},
		{
			"doubleSided":true,
			"name":"black",
			"pbrMetallicRoughness":{
				"baseColorFactor":[
					0.008079473860561848,
					0.008079473860561848,
					0.008079473860561848,
					1
				],
				"metallicFactor":0.09917355328798294,
				"roughnessFactor":0.8801653385162354
			}
		},
		{
			"doubleSided":true,
			"name":"string",
			"pbrMetallicRoughness":{
				"baseColorFactor":[
					0.4071202874183655,
					0.2899476885795593,
					0.07762382924556732,
					1
				],
				"metallicFactor":0.40495866537094116
			}
		},
		{
			"doubleSided":true,
			"name":"shoes",
			"pbrMetallicRoughness":{
				"baseColorFactor":[
					0.06256186217069626,
					0.037122905254364014,
					0.01737040840089321,
					1
				],
				"metallicFactor":0
			}
		},
		{
			"doubleSided":true,
			"extensions":{
				"KHR_materials_clearcoat":{
					"clearcoatRoughnessFactor":0.6498347520828247
				}
			},
			"name":"Yellow",
			"pbrMetallicRoughness":{
				"baseColorFactor":[
					0.5903123617172241,
					0.4573057293891907,
					0.004220865201205015,
					1
				],
				"metallicFactor":0,
				"roughnessFactor":0.7148760557174683
			}
		},
		{
			"doubleSided":true,
			"extensions":{
				"KHR_materials_clearcoat":{
					"clearcoatRoughnessFactor":1
				}
			},
			"name":"bandage",
			"pbrMetallicRoughness":{
				"baseColorFactor":[
					0.8000074625015259,
					0.6977697610855103,
					0.5225767493247986,
					1
				],
				"metallicFactor":0
			}
		},
		{
			"doubleSided":true,
			"name":"vitiligo2",
			"pbrMetallicRoughness":{
				"metallicFactor":0,
				"roughnessFactor":0.5995850563049316
			}
		},
		{
			"doubleSided":true,
			"name":"bakehead",
			"pbrMetallicRoughness":{
				"baseColorTexture":{
					"index":0
				},
				"metallicFactor":0,
				"metallicRoughnessTexture":{
					"index":1
				}
			}
		},
		{
			"doubleSided":true,
			"name":"bake",
			"pbrMetallicRoughness":{
				"baseColorTexture":{
					"index":2
				},
				"metallicFactor":0,
				"metallicRoughnessTexture":{
					"index":3
				}
			}
		}
	],
	"meshes":[
		{
			"name":"Torus",
			"primitives":[
				{
					"attributes":{
						"POSITION":0,
						"NORMAL":1,
						"TEXCOORD_0":2
					},
					"indices":3,
					"material":0
				}
			]
		},
		{
			"name":"Plane.004",
			"primitives":[
				{
					"attributes":{
						"POSITION":4,
						"NORMAL":5,
						"TEXCOORD_0":6
					},
					"indices":7,
					"material":1
				},
				{
					"attributes":{
						"POSITION":8,
						"NORMAL":9,
						"TEXCOORD_0":10
					},
					"indices":11,
					"material":2
				}
			]
		},
		{
			"name":"Sphere",
			"primitives":[
				{
					"attributes":{
						"POSITION":12,
						"NORMAL":13,
						"TEXCOORD_0":14
					},
					"indices":15,
					"material":3
				},
				{
					"attributes":{
						"POSITION":16,
						"NORMAL":17,
						"TEXCOORD_0":18
					},
					"indices":19,
					"material":4
				},
				{
					"attributes":{
						"POSITION":20,
						"NORMAL":21,
						"TEXCOORD_0":22
					},
					"indices":23,
					"material":5
				}
			]
		},
		{
			"name":"Plane.002",
			"primitives":[
				{
					"attributes":{
						"POSITION":24,
						"NORMAL":25,
						"TEXCOORD_0":26
					},
					"indices":27,
					"material":6
				},
				{
					"attributes":{
						"POSITION":28,
						"NORMAL":29,
						"TEXCOORD_0":30
					},
					"indices":31,
					"material":1
				},
				{
					"attributes":{
						"POSITION":32,
						"NORMAL":33,
						"TEXCOORD_0":34
					},
					"indices":35,
					"material":2
				}
			]
		},
		{
			"name":"Cylinder",
			"primitives":[
				{
					"attributes":{
						"POSITION":36,
						"NORMAL":37,
						"TEXCOORD_0":38
					},
					"indices":39,
					"material":7
				}
			]
		},
		{
			"name":"Cube.004",
			"primitives":[
				{
					"attributes":{
						"POSITION":40,
						"NORMAL":41,
						"TEXCOORD_0":42,
						"COLOR_0":43,
						"COLOR_1":44
					},
					"indices":45,
					"material":7
				}
			]
		},
		{
			"name":"Circle",
			"primitives":[
				{
					"attributes":{
						"POSITION":46,
						"NORMAL":47,
						"TEXCOORD_0":48
					},
					"indices":49,
					"material":8
				}
			]
		},
		{
			"name":"Cube.006",
			"primitives":[
				{
					"attributes":{
						"POSITION":50,
						"NORMAL":51,
						"TEXCOORD_0":52,
						"COLOR_0":53,
						"COLOR_1":54
					},
					"indices":55,
					"material":9
				}
			]
		},
		{
			"name":"Cube.005",
			"primitives":[
				{
					"attributes":{
						"POSITION":56,
						"NORMAL":57,
						"TEXCOORD_0":58
					},
					"indices":59,
					"material":10
				}
			]
		},
		{
			"name":"Cube.001",
			"primitives":[
				{
					"attributes":{
						"POSITION":60,
						"NORMAL":61,
						"TEXCOORD_0":62
					},
					"indices":63,
					"material":10
				}
			]
		},
		{
			"name":"Cube",
			"primitives":[
				{
					"attributes":{
						"POSITION":64,
						"NORMAL":65,
						"TEXCOORD_0":66,
						"COLOR_0":67,
						"COLOR_1":68
					},
					"indices":69,
					"material":11
				},
				{
					"attributes":{
						"POSITION":70,
						"NORMAL":71,
						"TEXCOORD_0":72,
						"COLOR_0":73,
						"COLOR_1":74
					},
					"indices":75,
					"material":7
				},
				{
					"attributes":{
						"POSITION":76,
						"NORMAL":77,
						"TEXCOORD_0":78,
						"COLOR_0":79,
						"COLOR_1":80
					},
					"indices":81,
					"material":12
				}
			]
		},
		{
			"name":"Plane.001",
			"primitives":[
				{
					"attributes":{
						"POSITION":82,
						"NORMAL":83,
						"TEXCOORD_0":84
					},
					"indices":85,
					"material":13
				}
			]
		},
		{
			"name":"Cube.002",
			"primitives":[
				{
					"attributes":{
						"POSITION":86,
						"NORMAL":87,
						"TEXCOORD_0":88,
						"COLOR_0":89,
						"COLOR_1":90
					},
					"indices":91,
					"material":14
				}
			]
		}
	],
	"textures":[
		{
			"sampler":0,
			"source":0
		},
		{
			"sampler":0,
			"source":1
		},
		{
			"sampler":0,
			"source":2
		},
		{
			"sampler":0,
			"source":3
		}
	],
	"images":[
		{
			"mimeType":"image/png",
			"name":"Colour head",
			"uri":"Colour%20head.png"
		},
		{
			"mimeType":"image/png",
			"name":"Roughness head",
			"uri":"Roughness%20head.png"
		},
		{
			"mimeType":"image/png",
			"name":"Colour",
			"uri":"Colour.png"
		},
		{
			"mimeType":"image/png",
			"name":"Roughness",
			"uri":"Roughness.png"
		}
	],
	"accessors":[
		{
			"bufferView":0,
			"componentType":5126,
			"count":117,
			"max":[
				0.036157939583063126,
				1.5927072763442993,
				-0.038679398596286774
			],
			"min":[
				-0.03709961473941803,
				1.5309151411056519,
				-0.10272862762212753
			],
			"type":"VEC3"
		},
		{
			"bufferView":1,
			"componentType":5126,
			"count":117,
			"type":"VEC3"
		},
		{
			"bufferView":2,
			"componentType":5126,
			"count":117,
			"type":"VEC2"
		},
		{
			"bufferView":3,
			"componentType":5123,
			"count":576,
			"type":"SCALAR"
		},
		{
			"bufferView":4,
			"componentType":5126,
			"count":2628,
			"max":[
				2.4419636726379395,
				6.01937198638916,
				47.82941436767578
			],
			"min":[
				-2.401352643966675,
				-2.3200461864471436,
				40.33274459838867
			],
			"type":"VEC3"
		},
		{
			"bufferView":5,
			"componentType":5126,
			"count":2628,
			"type":"VEC3"
		},
		{
			"bufferView":6,
			"componentType":5126,
			"count":2628,
			"type":"VEC2"
		},
		{
			"bufferView":7,
			"componentType":5123,
			"count":15564,
			"type":"SCALAR"
		},
		{
			"bufferView":8,
			"componentType":5126,
			"count":464,
			"max":[
				0.0036636649165302515,
				6.0742597579956055,
				45.51572799682617
			],
			"min":[
				-2.4419636726379395,
				-1.4840158224105835,
				42.7313117980957
			],
			"type":"VEC3"
		},
		{
			"bufferView":9,
			"componentType":5126,
			"count":464,
			"type":"VEC3"
		},
		{
			"bufferView":10,
			"componentType":5126,
			"count":464,
			"type":"VEC2"
		},
		{
			"bufferView":11,
			"componentType":5123,
			"count":2616,
			"type":"SCALAR"
		},
		{
			"bufferView":12,
			"componentType":5126,
			"count":922,
			"max":[
				1.2372382879257202,
				1.5611292123794556,
				-34.18852996826172
			],
			"min":[
				-1.2372382879257202,
				0.8575432300567627,
				-34.95685958862305
			],
			"type":"VEC3"
		},
		{
			"bufferView":13,
			"componentType":5126,
			"count":922,
			"type":"VEC3"
		},
		{
			"bufferView":14,
			"componentType":5126,
			"count":922,
			"type":"VEC2"
		},
		{
			"bufferView":15,
			"componentType":5123,
			"count":4800,
			"type":"SCALAR"
		},
		{
			"bufferView":16,
			"componentType":5126,
			"count":198,
			"max":[
				1.0665041208267212,
				1.6184911727905273,
				-34.35926055908203
			],
			"min":[
				-1.0665041208267212,
				1.5611292123794556,
				-34.78612518310547
			],
			"type":"VEC3"
		},
		{
			"bufferView":17,
			"componentType":5126,
			"count":198,
			"type":"VEC3"
		},
		{
			"bufferView":18,
			"componentType":5126,
			"count":198,
			"type":"VEC2"
		},
		{
			"bufferView":19,
			"componentType":5123,
			"count":768,
			"type":"SCALAR"
		},
		{
			"bufferView":20,
			"componentType":5126,
			"count":130,
			"max":[
				0.9280203580856323,
				1.6258726119995117,
				-34.49774932861328
			],
			"min":[
				-0.9280203580856323,
				1.6184911727905273,
				-34.647640228271484
			],
			"type":"VEC3"
		},
		{
			"bufferView":21,
			"componentType":5126,
			"count":130,
			"type":"VEC3"
		},
		{
			"bufferView":22,
			"componentType":5126,
			"count":130,
			"type":"VEC2"
		},
		{
			"bufferView":23,
			"componentType":5123,
			"count":192,
			"type":"SCALAR"
		},
		{
			"bufferView":24,
			"componentType":5126,
			"count":1989,
			"max":[
				2.4303932189941406,
				2.541863441467285,
				45.785850524902344
			],
			"min":[
				-2.4303932189941406,
				-2.8237192630767822,
				39.4556884765625
			],
			"type":"VEC3"
		},
		{
			"bufferView":25,
			"componentType":5126,
			"count":1989,
			"type":"VEC3"
		},
		{
			"bufferView":26,
			"componentType":5126,
			"count":1989,
			"type":"VEC2"
		},
		{
			"bufferView":27,
			"componentType":5123,
			"count":7554,
			"type":"SCALAR"
		},
		{
			"bufferView":28,
			"componentType":5126,
			"count":31,
			"max":[
				1.7879120111465454,
				-1.7877869606018066,
				43.13801193237305
			],
			"min":[
				-1.0298006534576416,
				-2.455653190612793,
				42.78238296508789
			],
			"type":"VEC3"
		},
		{
			"bufferView":29,
			"componentType":5126,
			"count":31,
			"type":"VEC3"
		},
		{
			"bufferView":30,
			"componentType":5126,
			"count":31,
			"type":"VEC2"
		},
		{
			"bufferView":31,
			"componentType":5123,
			"count":72,
			"type":"SCALAR"
		},
		{
			"bufferView":32,
			"componentType":5126,
			"count":12,
			"max":[
				-1.0224734544754028,
				-1.7857946157455444,
				43.14025115966797
			],
			"min":[
				-1.7892330884933472,
				-2.400129556655884,
				42.94089889526367
			],
			"type":"VEC3"
		},
		{
			"bufferView":33,
			"componentType":5126,
			"count":12,
			"type":"VEC3"
		},
		{
			"bufferView":34,
			"componentType":5126,
			"count":12,
			"type":"VEC2"
		},
		{
			"bufferView":35,
			"componentType":5123,
			"count":36,
			"type":"SCALAR"
		},
		{
			"bufferView":36,
			"componentType":5126,
			"count":450,
			"max":[
				0.10843686014413834,
				1.419963002204895,
				0.09898176789283752
			],
			"min":[
				-0.10835544764995575,
				0.7459619641304016,
				-0.13906940817832947
			],
			"type":"VEC3"
		},
		{
			"bufferView":37,
			"componentType":5126,
			"count":450,
			"type":"VEC3"
		},
		{
			"bufferView":38,
			"componentType":5126,
			"count":450,
			"type":"VEC2"
		},
		{
			"bufferView":39,
			"componentType":5123,
			"count":2640,
			"type":"SCALAR"
		},
		{
			"bufferView":40,
			"componentType":5126,
			"count":116,
			"max":[
				0.6049394607543945,
				-4.584334373474121,
				0.42684200406074524
			],
			"min":[
				-0.6049394607543945,
				-5.23414945602417,
				-0.4225590229034424
			],
			"type":"VEC3"
		},
		{
			"bufferView":41,
			"componentType":5126,
			"count":116,
			"type":"VEC3"
		},
		{
			"bufferView":42,
			"componentType":5126,
			"count":116,
			"type":"VEC2"
		},
		{
			"bufferView":43,
			"componentType":5121,
			"count":116,
			"normalized":true,
			"type":"VEC4"
		},
		{
			"bufferView":44,
			"componentType":5123,
			"count":116,
			"normalized":true,
			"type":"VEC4"
		},
		{
			"bufferView":45,
			"componentType":5123,
			"count":648,
			"type":"SCALAR"
		},
		{
			"bufferView":46,
			"componentType":5126,
			"count":2454,
			"max":[
				0.13414986431598663,
				0.12313800305128098,
				0.15543100237846375
			],
			"min":[
				-0.13414986431598663,
				0.006739032454788685,
				-0.04601778835058212
			],
			"type":"VEC3"
		},
		{
			"bufferView":47,
			"componentType":5126,
			"count":2454,
			"type":"VEC3"
		},
		{
			"bufferView":48,
			"componentType":5126,
			"count":2454,
			"type":"VEC2"
		},
		{
			"bufferView":49,
			"componentType":5123,
			"count":13488,
			"type":"SCALAR"
		},
		{
			"bufferView":50,
			"componentType":5126,
			"count":224,
			"max":[
				1.9113726615905762,
				-0.001274279085919261,
				0.7592360377311707
			],
			"min":[
				-1.9113726615905762,
				-0.08893781155347824,
				-2.3871586322784424
			],
			"type":"VEC3"
		},
		{
			"bufferView":51,
			"componentType":5126,
			"count":224,
			"type":"VEC3"
		},
		{
			"bufferView":52,
			"componentType":5126,
			"count":224,
			"type":"VEC2"
		},
		{
			"bufferView":53,
			"componentType":5121,
			"count":224,
			"normalized":true,
			"type":"VEC4"
		},
		{
			"bufferView":54,
			"componentType":5123,
			"count":224,
			"normalized":true,
			"type":"VEC4"
		},
		{
			"bufferView":55,
			"componentType":5123,
			"count":816,
			"type":"SCALAR"
		},
		{
			"bufferView":56,
			"componentType":5126,
			"count":263,
			"max":[
				0.7463215589523315,
				-3.826310396194458,
				0.35144540667533875
			],
			"min":[
				-0.7463215589523315,
				-4.8581390380859375,
				-0.34259065985679626
			],
			"type":"VEC3"
		},
		{
			"bufferView":57,
			"componentType":5126,
			"count":263,
			"type":"VEC3"
		},
		{
			"bufferView":58,
			"componentType":5126,
			"count":263,
			"type":"VEC2"
		},
		{
			"bufferView":59,
			"componentType":5123,
			"count":1308,
			"type":"SCALAR"
		},
		{
			"bufferView":60,
			"componentType":5126,
			"count":290,
			"max":[
				0.5393401980400085,
				2.5963494777679443,
				0.23484987020492554
			],
			"min":[
				-0.5393401980400085,
				0.7823968529701233,
				-0.32760384678840637
			],
			"type":"VEC3"
		},
		{
			"bufferView":61,
			"componentType":5126,
			"count":290,
			"type":"VEC3"
		},
		{
			"bufferView":62,
			"componentType":5126,
			"count":290,
			"type":"VEC2"
		},
		{
			"bufferView":63,
			"componentType":5123,
			"count":1524,
			"type":"SCALAR"
		},
		{
			"bufferView":64,
			"componentType":5126,
			"count":1634,
			"max":[
				2.990203857421875,
				-0.6374021172523499,
				0.30021047592163086
			],
			"min":[
				-2.990203857421875,
				-6.437260627746582,
				-0.18040330708026886
			],
			"type":"VEC3"
		},
		{
			"bufferView":65,
			"componentType":5126,
			"count":1634,
			"type":"VEC3"
		},
		{
			"bufferView":66,
			"componentType":5126,
			"count":1634,
			"type":"VEC2"
		},
		{
			"bufferView":67,
			"componentType":5121,
			"count":1634,
			"normalized":true,
			"type":"VEC4"
		},
		{
			"bufferView":68,
			"componentType":5123,
			"count":1634,
			"normalized":true,
			"type":"VEC4"
		},
		{
			"bufferView":69,
			"componentType":5123,
			"count":5928,
			"type":"SCALAR"
		},
		{
			"bufferView":70,
			"componentType":5126,
			"count":958,
			"max":[
				0.7171811461448669,
				-0.025393929332494736,
				0.2763426899909973
			],
			"min":[
				-0.7171811461448669,
				-0.6374022364616394,
				-0.8826397061347961
			],
			"type":"VEC3"
		},
		{
			"bufferView":71,
			"componentType":5126,
			"count":958,
			"type":"VEC3"
		},
		{
			"bufferView":72,
			"componentType":5126,
			"count":958,
			"type":"VEC2"
		},
		{
			"bufferView":73,
			"componentType":5121,
			"count":958,
			"normalized":true,
			"type":"VEC4"
		},
		{
			"bufferView":74,
			"componentType":5123,
			"count":958,
			"normalized":true,
			"type":"VEC4"
		},
		{
			"bufferView":75,
			"componentType":5123,
			"count":3996,
			"type":"SCALAR"
		},
		{
			"bufferView":76,
			"componentType":5126,
			"count":2208,
			"max":[
				3.2214515209198,
				-1.4089045524597168,
				0.5063908696174622
			],
			"min":[
				-3.2214515209198,
				-6.6214518547058105,
				-0.43162792921066284
			],
			"type":"VEC3"
		},
		{
			"bufferView":77,
			"componentType":5126,
			"count":2208,
			"type":"VEC3"
		},
		{
			"bufferView":78,
			"componentType":5126,
			"count":2208,
			"type":"VEC2"
		},
		{
			"bufferView":79,
			"componentType":5121,
			"count":2208,
			"normalized":true,
			"type":"VEC4"
		},
		{
			"bufferView":80,
			"componentType":5123,
			"count":2208,
			"normalized":true,
			"type":"VEC4"
		},
		{
			"bufferView":81,
			"componentType":5123,
			"count":8652,
			"type":"SCALAR"
		},
		{
			"bufferView":82,
			"componentType":5126,
			"count":2005,
			"max":[
				2.4303932189941406,
				2.541863441467285,
				45.785850524902344
			],
			"min":[
				-2.4303932189941406,
				-2.8237192630767822,
				39.4556884765625
			],
			"type":"VEC3"
		},
		{
			"bufferView":83,
			"componentType":5126,
			"count":2005,
			"type":"VEC3"
		},
		{
			"bufferView":84,
			"componentType":5126,
			"count":2005,
			"type":"VEC2"
		},
		{
			"bufferView":85,
			"componentType":5123,
			"count":7662,
			"type":"SCALAR"
		},
		{
			"bufferView":86,
			"componentType":5126,
			"count":4800,
			"max":[
				3.2214515209198,
				-0.025393929332494736,
				0.5063908696174622
			],
			"min":[
				-3.2214515209198,
				-6.6214518547058105,
				-0.8826397061347961
			],
			"type":"VEC3"
		},
		{
			"bufferView":87,
			"componentType":5126,
			"count":4800,
			"type":"VEC3"
		},
		{
			"bufferView":88,
			"componentType":5126,
			"count":4800,
			"type":"VEC2"
		},
		{
			"bufferView":89,
			"componentType":5121,
			"count":4800,
			"normalized":true,
			"type":"VEC4"
		},
		{
			"bufferView":90,
			"componentType":5123,
			"count":4800,
			"normalized":true,
			"type":"VEC4"
		},
		{
			"bufferView":91,
			"componentType":5123,
			"count":18576,
			"type":"SCALAR"
		}
	],
	"bufferViews":[
		{
			"buffer":0,
			"byteLength":1404,
			"byteOffset":0,
			"target":34962
		},
		{
			"buffer":0,
			"byteLength":1404,
			"byteOffset":1404,
			"target":34962
		},
		{
			"buffer":0,
			"byteLength":936,
			"byteOffset":2808,
			"target":34962
		},
		{
			"buffer":0,
			"byteLength":1152,
			"byteOffset":3744,
			"target":34963
		},
		{
			"buffer":0,
			"byteLength":31536,
			"byteOffset":4896,
			"target":34962
		},
		{
			"buffer":0,
			"byteLength":31536,
			"byteOffset":36432,
			"target":34962
		},
		{
			"buffer":0,
			"byteLength":21024,
			"byteOffset":67968,
			"target":34962
		},
		{
			"buffer":0,
			"byteLength":31128,
			"byteOffset":88992,
			"target":34963
		},
		{
			"buffer":0,
			"byteLength":5568,
			"byteOffset":120120,
			"target":34962
		},
		{
			"buffer":0,
			"byteLength":5568,
			"byteOffset":125688,
			"target":34962
		},
		{
			"buffer":0,
			"byteLength":3712,
			"byteOffset":131256,
			"target":34962
		},
		{
			"buffer":0,
			"byteLength":5232,
			"byteOffset":134968,
			"target":34963
		},
		{
			"buffer":0,
			"byteLength":11064,
			"byteOffset":140200,
			"target":34962
		},
		{
			"buffer":0,
			"byteLength":11064,
			"byteOffset":151264,
			"target":34962
		},
		{
			"buffer":0,
			"byteLength":7376,
			"byteOffset":162328,
			"target":34962
		},
		{
			"buffer":0,
			"byteLength":9600,
			"byteOffset":169704,
			"target":34963
		},
		{
			"buffer":0,
			"byteLength":2376,
			"byteOffset":179304,
			"target":34962
		},
		{
			"buffer":0,
			"byteLength":2376,
			"byteOffset":181680,
			"target":34962
		},
		{
			"buffer":0,
			"byteLength":1584,
			"byteOffset":184056,
			"target":34962
		},
		{
			"buffer":0,
			"byteLength":1536,
			"byteOffset":185640,
			"target":34963
		},
		{
			"buffer":0,
			"byteLength":1560,
			"byteOffset":187176,
			"target":34962
		},
		{
			"buffer":0,
			"byteLength":1560,
			"byteOffset":188736,
			"target":34962
		},
		{
			"buffer":0,
			"byteLength":1040,
			"byteOffset":190296,
			"target":34962
		},
		{
			"buffer":0,
			"byteLength":384,
			"byteOffset":191336,
			"target":34963
		},
		{
			"buffer":0,
			"byteLength":23868,
			"byteOffset":191720,
			"target":34962
		},
		{
			"buffer":0,
			"byteLength":23868,
			"byteOffset":215588,
			"target":34962
		},
		{
			"buffer":0,
			"byteLength":15912,
			"byteOffset":239456,
			"target":34962
		},
		{
			"buffer":0,
			"byteLength":15108,
			"byteOffset":255368,
			"target":34963
		},
		{
			"buffer":0,
			"byteLength":372,
			"byteOffset":270476,
			"target":34962
		},
		{
			"buffer":0,
			"byteLength":372,
			"byteOffset":270848,
			"target":34962
		},
		{
			"buffer":0,
			"byteLength":248,
			"byteOffset":271220,
			"target":34962
		},
		{
			"buffer":0,
			"byteLength":144,
			"byteOffset":271468,
			"target":34963
		},
		{
			"buffer":0,
			"byteLength":144,
			"byteOffset":271612,
			"target":34962
		},
		{
			"buffer":0,
			"byteLength":144,
			"byteOffset":271756,
			"target":34962
		},
		{
			"buffer":0,
			"byteLength":96,
			"byteOffset":271900,
			"target":34962
		},
		{
			"buffer":0,
			"byteLength":72,
			"byteOffset":271996,
			"target":34963
		},
		{
			"buffer":0,
			"byteLength":5400,
			"byteOffset":272068,
			"target":34962
		},
		{
			"buffer":0,
			"byteLength":5400,
			"byteOffset":277468,
			"target":34962
		},
		{
			"buffer":0,
			"byteLength":3600,
			"byteOffset":282868,
			"target":34962
		},
		{
			"buffer":0,
			"byteLength":5280,
			"byteOffset":286468,
			"target":34963
		},
		{
			"buffer":0,
			"byteLength":1392,
			"byteOffset":291748,
			"target":34962
		},
		{
			"buffer":0,
			"byteLength":1392,
			"byteOffset":293140,
			"target":34962
		},
		{
			"buffer":0,
			"byteLength":928,
			"byteOffset":294532,
			"target":34962
		},
		{
			"buffer":0,
			"byteLength":464,
			"byteOffset":295460,
			"target":34962
		},
		{
			"buffer":0,
			"byteLength":928,
			"byteOffset":295924,
			"target":34962
		},
		{
			"buffer":0,
			"byteLength":1296,
			"byteOffset":296852,
			"target":34963
		},
		{
			"buffer":0,
			"byteLength":29448,
			"byteOffset":298148,
			"target":34962
		},
		{
			"buffer":0,
			"byteLength":29448,
			"byteOffset":327596,
			"target":34962
		},
		{
			"buffer":0,
			"byteLength":19632,
			"byteOffset":357044,
			"target":34962
		},
		{
			"buffer":0,
			"byteLength":26976,
			"byteOffset":376676,
			"target":34963
		},
		{
			"buffer":0,
			"byteLength":2688,
			"byteOffset":403652,
			"target":34962
		},
		{
			"buffer":0,
			"byteLength":2688,
			"byteOffset":406340,
			"target":34962
		},
		{
			"buffer":0,
			"byteLength":1792,
			"byteOffset":409028,
			"target":34962
		},
		{
			"buffer":0,
			"byteLength":896,
			"byteOffset":410820,
			"target":34962
		},
		{
			"buffer":0,
			"byteLength":1792,
			"byteOffset":411716,
			"target":34962
		},
		{
			"buffer":0,
			"byteLength":1632,
			"byteOffset":413508,
			"target":34963
		},
		{
			"buffer":0,
			"byteLength":3156,
			"byteOffset":415140,
			"target":34962
		},
		{
			"buffer":0,
			"byteLength":3156,
			"byteOffset":418296,
			"target":34962
		},
		{
			"buffer":0,
			"byteLength":2104,
			"byteOffset":421452,
			"target":34962
		},
		{
			"buffer":0,
			"byteLength":2616,
			"byteOffset":423556,
			"target":34963
		},
		{
			"buffer":0,
			"byteLength":3480,
			"byteOffset":426172,
			"target":34962
		},
		{
			"buffer":0,
			"byteLength":3480,
			"byteOffset":429652,
			"target":34962
		},
		{
			"buffer":0,
			"byteLength":2320,
			"byteOffset":433132,
			"target":34962
		},
		{
			"buffer":0,
			"byteLength":3048,
			"byteOffset":435452,
			"target":34963
		},
		{
			"buffer":0,
			"byteLength":19608,
			"byteOffset":438500,
			"target":34962
		},
		{
			"buffer":0,
			"byteLength":19608,
			"byteOffset":458108,
			"target":34962
		},
		{
			"buffer":0,
			"byteLength":13072,
			"byteOffset":477716,
			"target":34962
		},
		{
			"buffer":0,
			"byteLength":6536,
			"byteOffset":490788,
			"target":34962
		},
		{
			"buffer":0,
			"byteLength":13072,
			"byteOffset":497324,
			"target":34962
		},
		{
			"buffer":0,
			"byteLength":11856,
			"byteOffset":510396,
			"target":34963
		},
		{
			"buffer":0,
			"byteLength":11496,
			"byteOffset":522252,
			"target":34962
		},
		{
			"buffer":0,
			"byteLength":11496,
			"byteOffset":533748,
			"target":34962
		},
		{
			"buffer":0,
			"byteLength":7664,
			"byteOffset":545244,
			"target":34962
		},
		{
			"buffer":0,
			"byteLength":3832,
			"byteOffset":552908,
			"target":34962
		},
		{
			"buffer":0,
			"byteLength":7664,
			"byteOffset":556740,
			"target":34962
		},
		{
			"buffer":0,
			"byteLength":7992,
			"byteOffset":564404,
			"target":34963
		},
		{
			"buffer":0,
			"byteLength":26496,
			"byteOffset":572396,
			"target":34962
		},
		{
			"buffer":0,
			"byteLength":26496,
			"byteOffset":598892,
			"target":34962
		},
		{
			"buffer":0,
			"byteLength":17664,
			"byteOffset":625388,
			"target":34962
		},
		{
			"buffer":0,
			"byteLength":8832,
			"byteOffset":643052,
			"target":34962
		},
		{
			"buffer":0,
			"byteLength":17664,
			"byteOffset":651884,
			"target":34962
		},
		{
			"buffer":0,
			"byteLength":17304,
			"byteOffset":669548,
			"target":34963
		},
		{
			"buffer":0,
			"byteLength":24060,
			"byteOffset":686852,
			"target":34962
		},
		{
			"buffer":0,
			"byteLength":24060,
			"byteOffset":710912,
			"target":34962
		},
		{
			"buffer":0,
			"byteLength":16040,
			"byteOffset":734972,
			"target":34962
		},
		{
			"buffer":0,
			"byteLength":15324,
			"byteOffset":751012,
			"target":34963
		},
		{
			"buffer":0,
			"byteLength":57600,
			"byteOffset":766336,
			"target":34962
		},
		{
			"buffer":0,
			"byteLength":57600,
			"byteOffset":823936,
			"target":34962
		},
		{
			"buffer":0,
			"byteLength":38400,
			"byteOffset":881536,
			"target":34962
		},
		{
			"buffer":0,
			"byteLength":19200,
			"byteOffset":919936,
			"target":34962
		},
		{
			"buffer":0,
			"byteLength":38400,
			"byteOffset":939136,
			"target":34962
		},
		{
			"buffer":0,
			"byteLength":37152,
			"byteOffset":977536,
			"target":34963
		}
	],
	"samplers":[
		{
			"magFilter":9729,
			"minFilter":9987
		}
	],
	"buffers":[
		{
			"byteLength":1014688,
			"uri":"Kiano_baked.bin"
		}
	]
}
